<mxfile host="65bd71144e">
    <diagram id="532PRbhik-OlkLxfB7qy" name="Page-1">
        <mxGraphModel dx="635" dy="537" grid="1" gridSize="10" guides="1" tooltips="1" connect="1" arrows="1" fold="1" page="1" pageScale="1" pageWidth="827" pageHeight="1169" math="0" shadow="0">
            <root>
                <mxCell id="0"/>
                <mxCell id="1" parent="0"/>
                <mxCell id="2" value="Libro" style="swimlane;fontStyle=1;align=center;verticalAlign=top;childLayout=stackLayout;horizontal=1;startSize=26;horizontalStack=0;resizeParent=1;resizeParentMax=0;resizeLast=0;collapsible=1;marginBottom=0;" vertex="1" parent="1">
                    <mxGeometry x="120" y="40" width="380" height="280" as="geometry"/>
                </mxCell>
                <mxCell id="3" value="- string nombre&#10;- string autor&#10;- int publicacion&#10;- double precio" style="text;align=left;verticalAlign=top;spacingLeft=4;spacingRight=4;overflow=hidden;rotatable=0;points=[[0,0.5],[1,0.5]];portConstraint=eastwest;fillColor=default;" vertex="1" parent="2">
                    <mxGeometry y="26" width="380" height="74" as="geometry"/>
                </mxCell>
                <mxCell id="4" value="" style="line;strokeWidth=1;fillColor=none;align=left;verticalAlign=middle;spacingTop=-1;spacingLeft=3;spacingRight=3;rotatable=0;labelPosition=right;points=[];portConstraint=eastwest;" vertex="1" parent="2">
                    <mxGeometry y="100" width="380" height="8" as="geometry"/>
                </mxCell>
                <mxCell id="5" value="+ Libro ( )&#10;+ ~Libro ( )&#10;+ Libro (string nombre, string autor, int publicacion, double precio)&#10;+ setNombre (string nombre)&#10;+ getNombre ( ) : string&#10;+ setAutor (string autor)&#10;+ getAutor ( ) : string&#10;+ setPublicacion (int publicacion)&#10;+ getPublicacion ( ) : int&#10;+ setPrecio (double precio)&#10;+ getPrecio ( ) : double" style="text;strokeColor=none;fillColor=default;align=left;verticalAlign=top;spacingLeft=4;spacingRight=4;overflow=hidden;rotatable=0;points=[[0,0.5],[1,0.5]];portConstraint=eastwest;" vertex="1" parent="2">
                    <mxGeometry y="108" width="380" height="172" as="geometry"/>
                </mxCell>
            </root>
        </mxGraphModel>
    </diagram>
</mxfile>